<svg t="1721013847590" class="icon" viewBox="0 0 1039 1024" version="1.1"
  xmlns="http://www.w3.org/2000/svg" p-id="16827" width="200" height="200">
  <path d="M504.203046 504.203046m-489.076955 0a489.076954 489.076954 0 1 0 978.153909 0 489.076954 489.076954 0 1 0-978.153909 0Z" fill="#FFFFFF" p-id="16828"></path>
  <path d="M553.614944 210.756873c-22.184934 22.184934-95.798579 64.53799-137.143228 76.638863-15.126091 4.033624-18.15131 4.033624-31.260589-1.008406-19.159716-9.075655-35.294213-11.092467-45.378274-7.058843-10.084061 3.025218-10.084061 9.075655-3.025218 30.252183s43.361462 250.084711 39.327837 253.109929c-3.025218 3.025218-62.521178 9.075655-114.958294 11.092467-59.495959 2.016812-66.554802 5.04203-62.521178 18.15131 3.025218 8.067249 37.311025 29.243777 53.445523 31.260588 6.050437 1.008406 23.19334 0 37.311025-3.025218 101.849015-23.19334 247.059492-34.285807 453.782741-35.294213 64.53799-1.008406 71.596832-3.025218 71.596833-18.15131 0-11.092467-13.109279-20.168122-44.369868-30.252182-22.184934-7.058843-26.218558-8.067249-50.420305-4.033625-32.268995 5.04203-115.966701 12.100873-120.000325 10.084061-4.033624-1.008406 19.159716-80.672487 26.218559-92.77336 8.067249-11.092467 3.025218-23.19334-12.100873-32.268995-6.050437-3.025218-11.092467-7.058843-11.092467-8.067249 0-1.008406 20.168122-4.033624 44.369868-6.050436 24.201746-3.025218 47.395086-6.050437 51.42871-8.067249 18.15131-10.084061-5.04203-31.260589-41.344649-39.327838-15.126091-3.025218-21.176528-2.016812-40.336244 4.033625-13.109279 3.025218-40.336244 10.084061-61.512772 14.117685-21.176528 4.033624-60.504365 11.092467-86.722924 16.134497-25.210152 5.04203-48.403492 8.067249-49.411898 8.067249-3.025218 0-4.033624-8.067249-9.075655-47.395086l-2.016812-18.15131 20.168122-6.050436c48.403492-14.117685 150.252508-41.34465 174.454254-46.386681 29.243777-6.050437 38.319431-12.100873 38.319431-25.210152 0-10.084061-18.15131-29.243777-43.361462-43.361462-22.184934-13.109279-33.277401-13.109279-44.369868-1.008406m-2.016812 219.832528c3.025218 13.109279-4.033624 112.941482-8.067249 116.975107-1.008406 1.008406-26.218558 4.033624-55.462335 5.04203l-53.445523 2.016812-6.050436-46.38668c-3.025218-26.218558-6.050437-52.437117-7.058843-58.487553l-2.016812-11.092467 60.504365-10.084061c34.285807-6.050437 62.521178-11.092467 64.53799-10.084061 2.016812 0 5.04203 6.050437 7.058843 12.100873m-154.286132 191.597157c-3.025218 4.033624-6.050437 13.109279-8.067249 20.168122-3.025218 16.134497-66.554802 79.664081-115.9667 114.958295-32.268995 24.201746-40.336244 34.285807-28.235371 39.327837 16.134497 6.050437 111.933076-44.369868 171.429036-88.739736 18.15131-14.117685 39.327838-29.243777 48.403492-33.277401 25.210152-13.109279 19.159716-27.226964-21.176528-49.411898-23.19334-13.109279-39.327838-14.117685-46.38668-3.025219m143.193665 10.084061c-3.025218 3.025218-5.04203 6.050437-5.04203 7.058843 0 2.016812 14.117685 18.15131 31.260588 36.302619 17.142904 17.142904 42.353056 46.38668 57.479148 63.529584 40.336244 48.403492 68.571614 62.521178 84.706111 41.34465 7.058843-8.067249 7.058843-12.100873 6.050437-29.243777-1.008406-11.092467-4.033624-25.210152-8.067249-31.260589-15.126091-29.243777-58.487553-58.487553-123.025543-80.672487-34.285807-12.100873-37.311025-13.109279-43.361462-7.058843" fill="#CC0000" p-id="16829"></path>
</svg>