<svg t="1721013784485" class="icon" viewBox="0 0 1039 1024" version="1.1"
  xmlns="http://www.w3.org/2000/svg" p-id="15696" width="200" height="200">
  <path d="M504.203046 504.203046m-489.076955 0a489.076954 489.076954 0 1 0 978.153909 0 489.076954 489.076954 0 1 0-978.153909 0Z" fill="#FFFFFF" p-id="15697"></path>
  <path d="M589.917563 217.815716c-4.033624 4.033624-10.084061 16.134497-13.109279 27.226964-4.033624 12.100873-11.092467 28.235371-16.134497 35.294213-10.084061 15.126091-53.445523 57.479147-68.571614 67.563209-6.050437 4.033624-9.075655 9.075655-8.067249 13.109279 1.008406 12.100873 17.142904 12.100873 40.336244-1.008406 11.092467-6.050437 22.184934-11.092467 24.201746-11.092467 6.050437 0 61.512772 52.437117 61.512771 58.487553 0 9.075655-79.664081 65.546396-118.991919 83.697705-22.184934 10.084061-26.218558 16.134497-17.142903 24.201747 11.092467 9.075655 63.529584-9.075655 115.9667-38.319432 17.142904-10.084061 32.268995-18.15131 34.285808-18.151309 4.033624 0 16.134497 36.302619 13.109279 43.361462-1.008406 3.025218-22.184934 6.050437-76.638863 12.100873-42.353056 5.04203-83.697706 9.075655-93.781767 9.075654-9.075655 1.008406-20.168122 2.016812-23.19334 4.033625-5.04203 2.016812-5.04203-4.033624-4.033624-67.563208 2.016812-106.891046 6.050437-166.387005 13.109279-183.529909 7.058843-18.15131 4.033624-26.218558-15.126091-36.302619-20.168122-10.084061-38.319431-14.117685-48.403493-10.084061-10.084061 3.025218-10.084061 6.050437-2.016812 41.34465 4.033624 19.159716 5.04203 61.512772 2.016812 99.832203-3.025218 31.260589-1.008406 29.243777-41.344649 33.277401l-24.201747 2.016812 3.025219-24.201746c1.008406-13.109279 5.04203-32.268995 8.067248-43.361462 8.067249-24.201746 5.04203-29.243777-21.176528-43.361462-33.277401-17.142904-46.38668-11.092467-39.327837 19.159716 5.04203 19.159716 4.033624 39.327838-7.058843 84.706111-8.067249 34.285807-7.058843 43.361462 7.058843 59.49596 12.100873 13.109279 21.176528 13.109279 35.294213 2.016812 6.050437-5.04203 25.210152-14.117685 44.369868-21.176528l34.285807-11.092467-1.008406 43.361462-1.008406 44.369868-49.411898 8.067249c-31.260589 5.04203-52.437117 6.050437-55.462336 5.04203-3.025218-2.016812-13.109279-4.033624-21.176527-4.033624-29.243777 0-32.268995 15.126091-8.067249 38.319431 9.075655 8.067249 19.159716 15.126091 23.19334 15.126091 7.058843 0 7.058843 1.008406 5.04203 13.10928-3.025218 17.142904-26.218558 66.554802-40.336243 86.722923-6.050437 9.075655-19.159716 25.210152-29.243777 35.294214-28.235371 29.243777-16.134497 40.336244 22.184934 20.168122 34.285807-18.15131 66.554802-56.470741 95.798579-110.924671 24.201746-45.378274 27.226964-54.453929 20.168122-60.504365-3.025218-3.025218 2.016812-6.050437 15.126091-11.092467 10.084061-4.033624 19.159716-7.058843 20.168122-6.050437 3.025218 2.016812-3.025218 97.815391-9.075655 129.07598-3.025218 17.142904-5.04203 37.311025-5.04203 45.378274 0 19.159716 15.126091 51.428711 26.218558 57.479147 8.067249 3.025218 10.084061 3.025218 19.159716-6.050436 19.159716-18.15131 21.176528-32.268995 21.176528-137.143229 0-51.428711 1.008406-94.790173 2.016812-94.790172s8.067249 4.033624 17.142903 9.075655c24.201746 15.126091 37.311025 17.142904 63.529584 11.092467 12.100873-3.025218 38.319431-7.058843 58.487553-9.075655 21.176528-2.016812 43.361462-4.033624 50.420305-5.042031l13.109279-2.016812v57.479147c0 57.479147-4.033624 106.891046-9.075655 112.941483-2.016812 1.008406-15.126091 0-30.252182-3.025219-29.243777-6.050437-38.319431-5.04203-38.319432 4.033625 0 8.067249 70.588426 82.689299 78.655675 82.689299 13.109279 0 37.311025-28.235371 46.38668-51.42871 8.067249-23.19334 9.075655-44.369868 6.050437-143.193665l-1.008406-57.479148 60.504365-1.008406c55.462335-1.008406 60.504365-2.016812 64.53799-8.067248 5.04203-11.092467-5.04203-26.218558-24.201746-35.294214-18.15131-9.075655-29.243777-10.084061-72.605239-5.04203-15.126091 1.008406-27.226964 2.016812-27.226964 1.008406s2.016812-10.084061 4.033624-21.176528c4.033624-22.184934 0-28.235371-26.218558-36.302619L655.463959 433.614619l27.226965-29.243776c15.126091-15.126091 36.302619-39.327838 47.395086-52.437117 10.084061-13.109279 25.210152-27.226964 32.268995-32.268995 15.126091-10.084061 20.168122-23.19334 13.109279-32.268995-8.067249-11.092467-46.38668-33.277401-54.453929-33.277401-5.04203 0-18.15131 4.033624-30.252182 9.075655-21.176528 9.075655-52.437117 15.126091-52.437117 11.092467 0-2.016812 4.033624-7.058843 10.084061-11.092467 9.075655-8.067249 9.075655-9.075655 4.033624-18.15131-4.033624-7.058843-14.117685-14.117685-30.252183-21.176528-24.201746-11.092467-26.218558-11.092467-32.268995-6.050436m93.781767 103.865827c-4.033624 7.058843-14.117685 20.168122-22.184934 30.252183l-13.109279 19.159716-15.126092-14.117686c-13.109279-11.092467-29.243777-20.168122-48.403492-26.218558-4.033624-1.008406-7.058843-4.033624-7.058843-5.04203 0-6.050437 14.117685-8.067249 46.386681-8.067249 16.134497-1.008406 34.285807-2.016812 40.336243-4.033625 6.050437-1.008406 14.117685-2.016812 19.159716-3.025218h8.067249l-8.067249 11.092467M544.539289 397.312c-15.126091 4.033624-37.311025 8.067249-48.403492 8.067249-25.210152 1.008406-38.319431 5.04203-38.319432 14.117685 0 8.067249 34.285807 39.327838 42.353056 39.327838 4.033624 0 14.117685-5.04203 24.201747-11.092467 9.075655-6.050437 29.243777-18.15131 44.369868-28.235371 20.168122-12.100873 27.226964-19.159716 26.218558-23.19334-1.008406-9.075655-17.142904-9.075655-50.420305 1.008406m-53.445523 176.471066c-8.067249 4.033624-5.04203 15.126091 15.126092 47.395086 22.184934 35.294213 33.277401 46.38668 47.395086 45.378274 17.142904 0 28.235371-15.126091 28.235371-38.319431 0-13.109279-2.016812-17.142904-14.117686-28.235371-17.142904-17.142904-62.521178-32.268995-76.638863-26.218558" p-id="15698"></path>
</svg>