<svg t="1721013894473" class="icon" viewBox="0 0 1039 1024" version="1.1"
xmlns="http://www.w3.org/2000/svg" p-id="20107" width="200" height="200">
  <path d="M465.883614 167.395411c-5.04203 6.050437-4.033624 13.109279 3.025218 49.411899 2.016812 11.092467 3.025218 26.218558 3.025219 33.277401l-1.008406 12.100873-27.226965 5.04203c-14.117685 2.016812-42.353056 6.050437-62.521177 8.067249-21.176528 2.016812-38.319431 5.04203-39.327838 8.067249-5.04203 7.058843 4.033624 20.168122 18.15131 25.210152 15.126091 6.050437 62.521178 7.058843 91.764954 2.016812 10.084061-1.008406 18.15131-1.008406 19.159716 0 1.008406 2.016812 0 12.100873-1.008406 24.201746l-2.016813 21.176528-20.168121 2.016812c-10.084061 2.016812-41.34465 3.025218-69.580021 4.033625-27.226964 0-51.428711 2.016812-53.445523 3.025218-5.04203 3.025218-5.04203 15.126091 0 18.15131 9.075655 6.050437 17.142904 32.268995 24.201747 82.689299 8.067249 65.546396 13.109279 84.706112 20.168121 92.773361 7.058843 8.067249 19.159716 8.067249 27.226965-1.008406 5.04203-5.04203 12.100873-7.058843 37.311025-8.067249l32.268995-1.008406-1.008406 23.19334L463.866802 594.959594l-65.546396 6.050436c-36.302619 3.025218-92.77336 7.058843-127.059167 10.084061-69.58002 4.033624-76.638863 6.050437-65.546396 22.184934 8.067249 13.109279 34.285807 29.243777 51.42871 32.268995 9.075655 1.008406 21.176528 0 37.311026-5.04203 28.235371-9.075655 95.798579-20.168122 140.168446-24.201746l30.252183-2.016813v76.638863c0 81.680893 4.033624 108.907858 15.126091 114.958295 10.084061 6.050437 22.184934-9.075655 27.226965-32.268995 5.04203-23.19334 10.084061-73.613645 13.109279-123.025543l2.016812-38.319432 15.126092-2.016812c8.067249-2.016812 68.571614-3.025218 136.134822-4.033624 128.067574-2.016812 138.151635-3.025218 138.151635-18.15131 0-10.084061-21.176528-28.235371-45.378275-38.319431-22.184934-9.075655-23.19334-10.084061-41.344649-4.033625-28.235371 9.075655-184.538315 24.201746-197.647594 19.159716-4.033624-2.016812-5.04203-7.058843-5.042031-20.168122-1.008406-9.075655 1.008406-18.15131 3.025219-20.168122 3.025218-1.008406 17.142904-3.025218 32.268995-5.04203 27.226964-3.025218 28.235371-2.016812 38.319431 8.067249 12.100873 12.100873 21.176528 13.109279 34.285807 1.008406 12.100873-9.075655 18.15131-26.218558 40.336244-101.849016 6.050437-21.176528 15.126091-45.378274 20.168122-53.445522 14.117685-21.176528 15.126091-25.210152 7.058842-37.311026-8.067249-12.100873-52.437117-35.294213-68.571614-35.294213-6.050437 0-20.168122 4.033624-32.268995 8.067249-11.092467 4.033624-31.260589 8.067249-44.369868 9.075655l-24.201746 2.016812v-42.353056l26.218558-3.025218c55.462335-5.04203 101.849015-15.126091 109.916264-22.184934 9.075655-9.075655 5.04203-17.142904-13.109279-26.218559-17.142904-8.067249-42.353056-9.075655-80.672487-1.008406-41.34465 8.067249-39.327838 8.067249-36.30262-11.092467 1.008406-9.075655 4.033624-20.168122 6.050437-24.201746 6.050437-14.117685-1.008406-24.201746-27.226964-36.302619-24.201746-12.100873-41.34465-14.117685-47.395087-6.050437M615.127716 391.261563c-1.008406 11.092467-3.025218 20.168122-3.025219 21.176528-1.008406 0-8.067249-1.008406-16.134497-3.025218-12.100873-3.025218-19.159716-3.025218-39.327838 2.016812-13.109279 3.025218-26.218558 4.033624-28.23537 3.025219-4.033624-3.025218-4.033624-32.268995 1.008406-35.294214 4.033624-3.025218 43.361462-8.067249 67.563208-8.067248h21.176528l-3.025218 20.168121m-146.218884 16.134498c0 11.092467-1.008406 20.168122-3.025218 21.176528-1.008406 1.008406-17.142904 2.016812-35.294213 2.016812l-33.277401 2.016812-3.025218-17.142903c-2.016812-10.084061-2.016812-18.15131-1.008406-20.168122 2.016812-1.008406 28.235371-4.033624 65.546396-6.050437 10.084061-1.008406 10.084061-1.008406 10.08406 18.15131M605.043655 452.774335c0 3.025218-4.033624 14.117685-7.058843 26.218558l-6.050436 22.184934h-62.521178c-1.008406 0-2.016812-9.075655-2.016812-20.168121v-20.168122l33.277401-6.050437c44.369868-7.058843 47.395086-7.058843 44.369868-2.016812m-136.134823 32.268995c0 26.218558 0 27.226964-35.294213 27.226964h-32.268995v-14.117685c0-8.067249 0-16.134497-2.016812-19.159716-2.016812-6.050437 0-6.050437 56.470741-9.075654l13.109279-1.008407v16.134498" fill="#CC0000" p-id="20109"></path>
</svg>