<svg t="1721013790594" class="icon" viewBox="0 0 1039 1024" version="1.1"
  xmlns="http://www.w3.org/2000/svg" p-id="15859" width="200" height="200">
  <path d="M504.203046 504.203046m-489.076955 0a489.076954 489.076954 0 1 0 978.153909 0 489.076954 489.076954 0 1 0-978.153909 0Z" fill="#FFFFFF" p-id="15860"></path>
  <path d="M608.068873 218.824122c-56.470741 17.142904-198.656 32.268995-220.840934 25.210152-16.134497-6.050437-36.302619-5.04203-42.353056 1.008406-3.025218 5.04203-3.025218 9.075655 3.025219 21.176528 11.092467 22.184934 13.109279 51.428711 8.067248 116.975107-5.04203 70.588426-9.075655 97.815391-18.151309 114.958294-7.058843 15.126091-5.04203 24.201746 9.075654 44.369868 13.109279 16.134497 20.168122 17.142904 45.378275 7.058843 29.243777-12.100873 62.521178-19.159716 118.991918-25.210152 58.487553-7.058843 167.395411-13.109279 178.487878-10.084061 13.109279 3.025218 14.117685 14.117685 7.058843 70.588426-10.084061 81.680893-25.210152 131.092792-42.353056 135.126416-4.033624 0-20.168122-4.033624-36.302619-9.075655-26.218558-9.075655-29.243777-10.084061-34.285807-5.04203s-4.033624 8.067249 14.117685 33.277401c11.092467 16.134497 24.201746 36.302619 29.243777 46.38668 8.067249 15.126091 11.092467 17.142904 21.176528 18.15131 24.201746 3.025218 64.53799-34.285807 81.680893-74.622051 12.100873-28.235371 17.142904-54.453929 25.210152-120.000325 5.04203-51.428711 8.067249-66.554802 15.126092-80.672487 15.126091-29.243777 13.109279-33.277401-31.260589-54.453929l-27.226964-13.109279-37.311026 6.050436c-21.176528 3.025218-60.504365 7.058843-88.739736 8.067249l-50.420304 3.025218v-18.151309c0-22.184934-4.033624-20.168122 61.512771-27.226965 49.411898-6.050437 63.529584-10.084061 65.546396-22.184934 2.016812-16.134497-37.311025-28.235371-73.613645-22.184934-13.109279 2.016812-29.243777 3.025218-36.302619 3.025218-13.109279 0-13.109279 0-13.109279-13.109279 0-8.067249 1.008406-15.126091 3.025218-16.134497 1.008406-1.008406 22.184934-4.033624 46.38668-7.058843 53.445523-7.058843 65.546396-11.092467 69.580021-20.168122 5.04203-18.15131-35.294213-31.260589-76.638863-25.210152-13.109279 3.025218-28.235371 4.033624-33.277401 4.033624-8.067249 0-8.067249 0-5.042031-14.117685 2.016812-9.075655 4.033624-18.15131 5.042031-22.184934 0-6.050437 7.058843-8.067249 55.462335-15.126091 58.487553-8.067249 69.58002-11.092467 69.58002-22.184934 0-18.15131-36.302619-29.243777-65.546396-21.176528m-131.092792 69.58002c2.016812 3.025218 2.016812 13.109279 2.016812 22.184934v17.142904l-21.176528 2.016812c-12.100873 1.008406-28.235371 2.016812-35.294213 2.016812-13.109279 0-13.109279-1.008406-13.109279-11.092467 0-7.058843 1.008406-18.15131 2.016812-25.210152L413.446497 282.353706h31.260589c24.201746 0 31.260589 1.008406 32.268995 6.050436m2.016812 98.823797v17.142904l-28.23537 3.025218c-49.411898 4.033624-49.411898 4.033624-48.403493-9.075655 0-26.218558 0-26.218558 40.336244-27.226964l36.302619-1.008406v17.142903m0 81.680893v21.176528l-21.176528 4.033625c-12.100873 2.016812-32.268995 4.033624-43.361461 6.050436-21.176528 2.016812-21.176528 2.016812-18.15131-6.050436 1.008406-5.04203 2.016812-16.134497 2.016812-25.210153v-17.142903l31.260589-1.008406c16.134497-1.008406 35.294213-1.008406 40.336244-2.016812 9.075655 0 9.075655 0 9.075654 20.168121m71.596833 89.748143c-4.033624 5.04203-4.033624 7.058843 1.008406 15.126091 11.092467 17.142904 52.437117 62.521178 63.529584 68.571614 13.109279 9.075655 27.226964 4.033624 35.294213-12.100873 14.117685-30.252183 2.016812-50.420305-40.336244-63.529584-40.336244-13.109279-54.453929-14.117685-59.495959-8.067248m-277.311675 10.084061c-3.025218 5.04203-6.050437 14.117685-7.058843 20.168121-2.016812 7.058843-10.084061 26.218558-18.15131 42.353056-13.109279 23.19334-15.126091 32.268995-15.126091 47.395086 0 26.218558 9.075655 41.34465 26.218558 41.34465 10.084061 0 14.117685-2.016812 22.184934-14.117685 25.210152-34.285807 35.294213-103.865827 19.159716-131.092792-8.067249-14.117685-20.168122-17.142904-27.226964-6.050436m177.479472 11.092467c0 11.092467 31.260589 57.479147 46.38668 70.588426 14.117685 12.100873 19.159716 12.100873 32.268995-1.008406 10.084061-10.084061 11.092467-12.100873 9.075655-28.235371-1.008406-12.100873-4.033624-21.176528-10.084061-26.218558-10.084061-12.100873-41.34465-23.19334-61.512772-23.19334-14.117685 0-16.134497 1.008406-16.134497 8.067249m-100.840609 1.008406c-7.058843 3.025218-5.04203 11.092467 12.100873 42.353055 21.176528 39.327838 40.336244 55.462335 56.470741 44.369868 12.100873-8.067249 15.126091-36.302619 6.050436-53.445522-8.067249-16.134497-60.504365-39.327838-74.62205-33.277401" p-id="15861"></path>
</svg>