<svg t="1721013755074" class="icon" viewBox="0 0 1039 1024" version="1.1"
  xmlns="http://www.w3.org/2000/svg" p-id="15370" width="200" height="200">
  <path d="M504.203046 504.203046m-489.076955 0a489.076954 489.076954 0 1 0 978.153909 0 489.076954 489.076954 0 1 0-978.153909 0Z" fill="#FFFFFF" p-id="15371"></path>
  <path d="M531.43001 208.740061c-3.025218 3.025218-7.058843 16.134497-9.075655 34.285807-8.067249 52.437117-37.311025 130.084386-71.596832 187.563533-8.067249 15.126091-14.117685 27.226964-13.109279 33.277401 1.008406 4.033624-1.008406 11.092467-3.025219 14.117685-4.033624 4.033624-4.033624 9.075655-1.008406 25.210153 3.025218 15.126091 4.033624 44.369868 2.016812 103.865827-2.016812 72.605239-2.016812 86.722924 3.025219 103.865827 11.092467 36.302619 43.361462 61.512772 95.798578 73.613645 109.916264 26.218558 216.80731 11.092467 271.261239-37.311025 20.168122-17.142904 22.184934-26.218558 11.092467-42.353056-10.084061-15.126091-17.142904-37.311025-23.19334-68.571614-4.033624-21.176528-10.084061-33.277401-17.142904-33.277401-10.084061 0-15.126091 12.100873-20.168121 42.353055-9.075655 60.504365-23.19334 76.638863-72.605239 88.739737-26.218558 7.058843-36.302619 8.067249-85.714518 6.050436-74.622051-3.025218-100.840609-10.084061-113.949888-35.294213-7.058843-14.117685-8.067249-82.689299-1.008406-86.722924 2.016812-2.016812 20.168122-6.050437 40.336243-9.075655 45.378274-8.067249 51.428711-10.084061 56.470742-17.142903 3.025218-4.033624 2.016812-7.058843-3.025219-13.10928-6.050437-6.050437-6.050437-7.058843 3.025219-34.285807 5.04203-15.126091 13.109279-33.277401 18.151309-40.336243 5.04203-6.050437 8.067249-14.117685 8.067249-18.15131 0-8.067249-21.176528-22.184934-42.353056-27.226964-15.126091-4.033624-18.15131-4.033624-37.311025 5.04203-23.19334 10.084061-65.546396 16.134497-69.580021 10.084061-1.008406-2.016812 4.033624-9.075655 11.092467-15.126091 8.067249-6.050437 21.176528-20.168122 31.260589-31.260589 16.134497-20.168122 16.134497-20.168122 29.243777-17.142904 11.092467 3.025218 18.15131 2.016812 43.361462-7.058842 39.327838-14.117685 76.638863-23.19334 91.764954-21.176528l12.100873 1.008406-1.008406 34.285807c-1.008406 54.453929-16.134497 131.092792-28.23537 144.202071-5.04203 5.04203-6.050437 5.04203-25.210153-2.016812-18.15131-6.050437-22.184934-6.050437-26.218558-2.016812-3.025218 2.016812-6.050437 5.04203-6.050437 7.058842 0 1.008406 7.058843 12.100873 17.142904 24.201746 9.075655 11.092467 19.159716 26.218558 23.19334 33.277401 13.109279 20.168122 36.302619 16.134497 57.479147-11.092467 14.117685-19.159716 27.226964-59.495959 34.285807-110.92467 7.058843-46.38668 18.15131-102.857421 23.19334-117.983512 5.04203-14.117685 0-24.201746-22.184934-39.327838s-27.226964-16.134497-57.479147-6.050436c-31.260589 10.084061-111.933076 30.252183-122.017137 30.252182-8.067249 0-8.067249-5.04203-1.008406-11.092467 3.025218-3.025218 14.117685-20.168122 23.19334-39.327837 9.075655-20.168122 22.184934-43.361462 28.235371-52.437117l11.092467-17.142904-7.058843-10.084061c-8.067249-11.092467-42.353056-32.268995-52.437117-32.268994-4.033624 0-10.084061 2.016812-13.109279 4.033624m-235.967025 20.168122c-5.04203 7.058843-5.04203 10.084061 2.016812 30.252182 6.050437 20.168122 7.058843 29.243777 7.058843 122.017138 0 86.722924-1.008406 106.891046-8.067249 148.235695-13.109279 83.697706-39.327838 141.176853-87.73133 198.656-19.159716 23.19334-22.184934 28.235371-18.15131 32.268995 6.050437 8.067249 14.117685 7.058843 33.277401-5.042031 40.336244-26.218558 89.748142-86.722924 100.840609-124.033949 2.016812-8.067249 5.04203-17.142904 7.058843-18.151309 1.008406-2.016812 12.100873 11.092467 24.201746 29.243776 11.092467 17.142904 25.210152 34.285807 30.252183 37.311026 7.058843 5.04203 9.075655 5.04203 19.159716 0 15.126091-8.067249 21.176528-28.235371 12.100873-46.386681-7.058843-14.117685-34.285807-32.268995-62.521178-41.344649-13.109279-4.033624-14.117685-5.04203-12.100873-15.126092 7.058843-38.319431 9.075655-53.445523 11.092467-85.714518 2.016812-27.226964 4.033624-38.319431 9.075655-41.344649 14.117685-11.092467 71.596832-53.445523 81.680893-59.49596 17.142904-11.092467 17.142904-23.19334 1.008406-40.336243-16.134497-16.134497-40.336244-25.210152-48.403492-18.15131-3.025218 2.016812-8.067249 13.109279-11.092467 24.201746-7.058843 22.184934-18.15131 46.38668-23.19334 46.38668-4.033624 0 0-85.714518 5.04203-118.991918 3.025218-15.126091 5.04203-30.252183 5.042031-33.277401 0-8.067249-32.268995-24.201746-53.445523-26.218559-17.142904-2.016812-20.168122-1.008406-24.201746 5.042031m-93.781767 191.597157c-7.058843 7.058843-6.050437 14.117685 9.075655 44.369868 18.15131 36.302619 29.243777 51.428711 43.361462 57.479147 14.117685 6.050437 26.218558-2.016812 31.260589-21.176528 6.050437-18.15131 2.016812-36.302619-11.092467-51.42871-19.159716-21.176528-62.521178-39.327838-72.605239-29.243777m330.757198 90.756548c0 8.067249-2.016812 19.159716-9.075655 49.411899-2.016812 8.067249-11.092467 13.109279-30.252182 15.126091l-12.100873 1.008406 1.008406-19.159715c3.025218-40.336244 8.067249-48.403492 34.285807-54.453929 14.117685-3.025218 16.134497-2.016812 16.134497 8.067248" p-id="15372"></path>
</svg>