<svg t="1721013767121" class="icon" viewBox="0 0 1039 1024" version="1.1"
xmlns="http://www.w3.org/2000/svg" p-id="15533" width="200" height="200">
  <path d="M375.127066 227.899777c-3.025218 3.025218-5.04203 10.084061-5.04203 16.134497 0 15.126091-15.126091 57.479147-32.268995 91.764954-26.218558 52.437117-79.664081 127.059168-130.084386 180.504691-19.159716 21.176528-25.210152 28.235371-23.19334 34.285807 2.016812 4.033624 6.050437 7.058843 11.092467 7.058843 11.092467 0 69.58002-42.353056 102.857421-75.630457l26.218558-25.210153-2.016812 93.781767c-1.008406 51.428711-4.033624 102.857421-5.04203 114.958294-8.067249 49.411898-9.075655 60.504365-2.016812 78.655675 13.109279 34.285807 25.210152 43.361462 39.327837 28.235371 15.126091-16.134497 16.134497-24.201746 17.142904-151.260914 1.008406-107.899452 3.025218-146.218883 10.084061-169.412223 2.016812-5.04203-2.016812-11.092467-12.100873-22.184934L354.958944 413.446497l9.075655-12.100873c10.084061-12.100873 33.277401-51.428711 53.445523-87.73133 7.058843-13.109279 16.134497-26.218558 20.168122-30.252182 13.109279-12.100873 15.126091-18.15131 7.058842-29.243777-18.15131-25.210152-56.470741-39.327838-69.58002-26.218558m164.370193 22.184934c-3.025218 7.058843-3.025218 11.092467 4.033624 26.218558 8.067249 17.142904 8.067249 23.19334 9.075655 99.832203l1.008406 80.672487-72.605238 10.084061c-82.689299 12.100873-96.806985 15.126091-96.806985 22.184934 0 15.126091 12.100873 23.19334 41.34465 30.252183 15.126091 3.025218 23.19334 2.016812 56.470741-5.04203 21.176528-5.04203 46.38668-10.084061 56.470741-11.092467l19.159716-3.025219v147.22729l-58.487554 8.067248c-72.605239 11.092467-72.605239 10.084061-72.605238 20.168122 0 16.134497 33.277401 32.268995 59.495959 29.243777 7.058843-1.008406 43.361462-6.050437 79.664081-11.092467 37.311025-5.04203 94.790173-10.084061 129.07598-12.100873 66.554802-4.033624 72.605239-5.04203 77.647269-15.126092 5.04203-9.075655-6.050437-22.184934-30.252183-33.277401-20.168122-10.084061-35.294213-10.084061-73.613644-3.025218-15.126091 3.025218-32.268995 5.04203-39.327838 5.042031h-12.100873v-70.588427c0-38.319431 1.008406-70.588426 3.025218-71.596832 3.025218-2.016812 52.437117-7.058843 143.193665-13.10928 62.521178-4.033624 64.53799-5.04203 67.563208-16.134497 3.025218-11.092467-2.016812-17.142904-27.226964-30.252183-23.19334-12.100873-37.311025-12.100873-76.638863-5.04203-39.327838 8.067249-103.865827 16.134497-106.891046 13.109279-1.008406-1.008406-1.008406-29.243777 0-62.521178 3.025218-48.403492 5.04203-63.529584 11.092467-78.655675 7.058843-17.142904 7.058843-20.168122 2.016812-27.226964-8.067249-12.100873-42.353056-27.226964-67.563208-29.243777-20.168122-1.008406-22.184934-1.008406-26.218558 6.050437" fill="#CC0000" p-id="15535"></path>
</svg>