<svg t="1721013855564" class="icon" viewBox="0 0 1039 1024" version="1.1"
  xmlns="http://www.w3.org/2000/svg" p-id="16990" width="200" height="200">
  <path d="M504.203046 504.203046m-489.076955 0a489.076954 489.076954 0 1 0 978.153909 0 489.076954 489.076954 0 1 0-978.153909 0Z" fill="#FFFFFF" p-id="16991"></path>
  <path d="M440.673462 224.874558c-2.016812 5.04203 0 12.100873 7.058843 27.226965l11.092467 21.176528-1.008407 98.823797-1.008406 98.823797-16.134497 3.025218c-29.243777 4.033624-170.420629 20.168122-201.681218 22.184934-35.294213 2.016812-40.336244 4.033624-37.311026 17.142904 2.016812 6.050437 10.084061 14.117685 24.201746 23.19334 28.235371 18.15131 39.327838 20.168122 65.546396 11.092467 20.168122-7.058843 73.613645-18.15131 123.025544-25.210153 13.109279-2.016812 29.243777-5.04203 34.285807-6.050436l9.075654-2.016812v86.722923c0 48.403492-1.008406 87.73133-2.016812 87.73133-2.016812 0-29.243777 3.025218-61.512771 6.050437-31.260589 4.033624-65.546396 7.058843-75.630457 7.058843-23.19334 1.008406-29.243777 3.025218-30.252183 11.092467 0 9.075655 19.159716 23.19334 41.34465 30.252182 18.15131 6.050437 21.176528 6.050437 55.462335 0 71.596832-11.092467 101.849015-14.117685 210.756873-16.134497 106.891046-2.016812 110.92467-2.016812 114.958294-9.075655 5.04203-7.058843 4.033624-8.067249-2.016812-16.134497-9.075655-12.100873-48.403492-28.235371-67.563208-27.226965-9.075655 0-21.176528 1.008406-29.243777 3.025218-8.067249 2.016812-32.268995 4.033624-54.453928 6.050437l-40.336244 2.016812 2.016812-85.714518c1.008406-46.38668 3.025218-85.714518 4.033624-87.73133 5.04203-5.04203 56.470741-7.058843 162.353381-7.058842 60.504365 0 112.941482-2.016812 117.983513-3.025218 12.100873-3.025218 14.117685-17.142904 2.016812-29.243777-13.109279-14.117685-49.411898-30.252183-68.571614-29.243777-9.075655 0-52.437117 4.033624-96.806985 9.075655-44.369868 5.04203-88.739736 9.075655-98.823797 9.075655h-19.159716v-13.109279c0-7.058843 2.016812-43.361462 5.042031-79.664082 4.033624-63.529584 7.058843-79.664081 18.151309-100.840609 5.04203-10.084061 2.016812-18.15131-13.109279-28.23537-27.226964-19.159716-83.697706-28.235371-91.764954-15.126092" p-id="16992"></path>
</svg>