<svg t="1721013802935" class="icon" viewBox="0 0 1039 1024" version="1.1"
  xmlns="http://www.w3.org/2000/svg" p-id="16024" width="200" height="200">
  <path d="M504.203046 504.203046m-489.076955 0a489.076954 489.076954 0 1 0 978.153909 0 489.076954 489.076954 0 1 0-978.153909 0Z" fill="#FFFFFF" p-id="16025"></path>
  <path d="M369.076629 204.706437c-7.058843 5.04203-8.067249 17.142904-1.008406 40.336243 4.033624 12.100873 5.04203 34.285807 5.042031 77.647269v61.512772l-9.075655 2.016812c-6.050437 1.008406-33.277401 4.033624-60.504365 8.067249-28.235371 3.025218-52.437117 8.067249-55.462336 10.084061-9.075655 6.050437-3.025218 18.15131 14.117686 26.218558 16.134497 7.058843 38.319431 9.075655 77.647269 4.033624 11.092467-2.016812 20.168122-2.016812 21.176528-1.008406 2.016812 3.025218-50.420305 88.739736-66.554802 108.907858-17.142904 22.184934-68.571614 74.622051-86.722924 87.73133-11.092467 8.067249-14.117685 12.100873-13.109279 19.159716 1.008406 7.058843 3.025218 9.075655 10.084061 8.067249 14.117685-1.008406 57.479147-23.19334 84.706111-43.361462 21.176528-15.126091 33.277401-28.235371 72.605239-79.664082l8.067249-10.08406-2.016813 35.294213c-3.025218 54.453929-8.067249 102.857421-14.117685 135.126416-3.025218 16.134497-5.04203 36.302619-4.033624 44.369868 2.016812 21.176528 16.134497 48.403492 28.23537 54.453929 8.067249 5.04203 10.084061 5.04203 18.15131-3.025218 17.142904-16.134497 19.159716-31.260589 21.176528-159.328163 2.016812-65.546396 4.033624-118.991919 6.050436-117.983512 1.008406 1.008406 5.04203 9.075655 9.075655 17.142903 9.075655 19.159716 33.277401 41.34465 45.378274 41.34465 20.168122 0 31.260589-32.268995 17.142904-52.437117-7.058843-10.084061-44.369868-34.285807-57.479147-37.311025-16.134497-4.033624-18.15131-8.067249-15.126092-35.294214 2.016812-23.19334 3.025218-25.210152 11.092467-26.218558 23.19334-3.025218 69.58002-16.134497 74.622051-21.176528 9.075655-7.058843 8.067249-12.100873-1.008406-21.176528-13.109279-11.092467-38.319431-17.142904-57.479147-12.100873-27.226964 7.058843-26.218558 10.084061-21.176528-40.336243 2.016812-25.210152 6.050437-55.462335 9.075655-67.563209 4.033624-21.176528 4.033624-22.184934-4.033625-30.252182-10.084061-11.092467-40.336244-27.226964-51.42871-26.218559-4.033624 0-10.084061 1.008406-13.10928 3.025219M679.665706 312.605888c-35.294213 12.100873-80.672487 20.168122-120.000325 20.168122-19.159716 1.008406-35.294213 2.016812-38.319432 5.042031-2.016812 2.016812-1.008406 10.084061 5.042031 26.218558 7.058843 21.176528 8.067249 26.218558 7.058842 110.92467 0 57.479147-3.025218 104.874234-6.050436 132.101198-10.084061 76.638863-11.092467 88.739736-4.033625 102.857421 8.067249 16.134497 19.159716 27.226964 27.226965 27.226965 7.058843 0 17.142904-10.084061 17.142903-18.15131 0-3.025218 1.008406-6.050437 3.025219-7.058842 2.016812-2.016812 26.218558-4.033624 53.445523-6.050437 28.235371-2.016812 53.445523-5.04203 56.470741-5.04203 5.04203-2.016812 9.075655 4.033624 16.134497 21.176527 12.100873 28.235371 19.159716 34.285807 33.277401 29.243777 12.100873-4.033624 23.19334-18.15131 35.294213-40.336244 9.075655-19.159716 9.075655-39.327838 1.008406-101.849015-7.058843-64.53799-5.04203-211.765279 4.033625-234.958619 10.084061-27.226964 10.084061-27.226964-2.016812-39.327838-17.142904-15.126091-45.378274-31.260589-56.470741-31.260588-4.033624 1.008406-19.159716 4.033624-32.268995 9.075654m21.176528 48.403493c3.025218 2.016812 4.033624 17.142904 4.033624 40.336243v36.30262l-11.092467-2.016813c-7.058843-1.008406-18.15131 0-26.218559 2.016813-32.268995 9.075655-79.664081 17.142904-83.697705 14.117685-1.008406-2.016812-2.016812-19.159716 0-42.353056l2.016812-38.319431 14.117685-4.033625c36.302619-10.084061 93.781766-13.109279 100.84061-6.050436m4.033624 150.252507v34.285807l-20.168122-1.008406c-13.109279-1.008406-30.252183 1.008406-48.403492 5.042031-25.210152 7.058843-42.353056 9.075655-53.445523 8.067249-3.025218 0-5.04203-8.067249-5.042031-26.218559 0-34.285807 2.016812-37.311025 17.142904-37.311025 11.092467 0 89.748142-13.109279 97.815391-16.134498 11.092467-4.033624 12.100873-1.008406 12.100873 33.277401m-1.008406 84.706112c-1.008406 7.058843-2.016812 23.19334-2.016812 36.302619 0 19.159716-1.008406 23.19334-5.042031 22.184934-3.025218-1.008406-28.235371 1.008406-57.479147 5.042031-29.243777 4.033624-55.462335 7.058843-58.487553 5.04203-5.04203-1.008406-6.050437-7.058843-6.050437-28.23537 0-15.126091 1.008406-29.243777 3.025218-31.260589 1.008406-2.016812 14.117685-5.04203 28.235371-6.050437 15.126091-2.016812 40.336244-6.050437 57.479147-9.075655 44.369868-10.084061 43.361462-10.084061 40.336244 6.050437" fill="#CC0000" p-id="16026"></path>
</svg>