<svg t="1721013916226" class="icon" viewBox="0 0 1039 1024" version="1.1"
xmlns="http://www.w3.org/2000/svg" p-id="21583" width="200" height="200">
  <path d="M415.46331 176.471066c-3.025218 2.016812-8.067249 11.092467-12.100873 20.168122-6.050437 20.168122-50.420305 74.622051-78.655676 96.806985-18.15131 15.126091-23.19334 26.218558-13.109279 30.252182 9.075655 3.025218 39.327838-9.075655 67.563208-29.243776 26.218558-17.142904 29.243777-18.15131 44.369868-17.142904 9.075655 1.008406 24.201746 1.008406 34.285807-2.016812 11.092467-2.016812 20.168122-3.025218 21.176528-2.016812 1.008406 1.008406-10.084061 14.117685-25.210152 29.243776l-26.218558 27.226965-68.571614 1.008406c-37.311025 1.008406-68.571614 2.016812-70.588427 3.025218-5.04203 3.025218-3.025218 11.092467 5.042031 20.168122 10.084061 11.092467 11.092467 12.100873 18.151309 51.428711 3.025218 16.134497 8.067249 33.277401 11.092467 39.327837 7.058843 15.126091 19.159716 19.159716 28.235371 10.084061 4.033624-3.025218 15.126091-7.058843 26.218558-9.075655l19.159716-2.016812-29.243777 26.218559c-15.126091 14.117685-47.395086 37.311025-69.58002 51.42871-41.34465 24.201746-50.420305 34.285807-38.319432 38.319432 14.117685 6.050437 85.714518-23.19334 127.059168-49.411899 26.218558-18.15131 27.226964-18.15131 33.277401-11.092467 10.084061 12.100873-74.622051 79.664081-143.193665 114.958295-21.176528 11.092467-38.319431 22.184934-38.319431 24.201746 0 16.134497 25.210152 13.109279 79.664081-6.050437 44.369868-16.134497 118.991919-67.563208 133.109604-90.756548 3.025218-6.050437 4.033624-6.050437 7.058842-2.016812 9.075655 13.109279 4.033624 22.184934-27.226964 53.445523-43.361462 41.34465-84.706112 70.588426-148.235695 101.849015-29.243777 14.117685-53.445523 28.235371-53.445523 30.252183 0 3.025218 2.016812 7.058843 5.04203 9.075655 5.04203 4.033624 11.092467 4.033624 33.277401-2.016813 63.529584-14.117685 128.067574-45.378274 175.46266-83.697705C458.824772 635.295838 473.950863 625.211777 473.950863 624.203371c4.033624 0 2.016812 39.327838-3.025218 58.487553-8.067249 28.235371-16.134497 42.353056-26.218559 43.361462-5.04203 1.008406-19.159716-2.016812-33.277401-6.050437-22.184934-7.058843-24.201746-8.067249-30.252182-2.016812-5.04203 5.04203-4.033624 7.058843 16.134497 27.226965 11.092467 12.100873 27.226964 31.260589 36.302619 42.353055 16.134497 23.19334 23.19334 26.218558 37.311026 20.168122 43.361462-16.134497 70.588426-98.823797 61.512771-184.538315-2.016812-17.142904-3.025218-32.268995-3.025218-32.268994 1.008406-1.008406 14.117685 13.109279 28.235371 31.260588 67.563208 80.672487 93.781766 105.88264 113.949888 109.916264 24.201746 5.04203 108.907858-15.126091 115.9667-27.226964 5.04203-10.084061 0-13.109279-33.277401-20.168122-34.285807-8.067249-91.764954-35.294213-120.000325-57.479147-11.092467-8.067249-35.294213-29.243777-53.445522-47.395086l-33.277401-32.268995 40.336243-20.168122c22.184934-11.092467 46.38668-21.176528 53.445523-22.184934 14.117685-2.016812 20.168122-11.092467 14.117685-22.184934-14.117685-28.235371-40.336244-47.395086-54.453929-41.34465-4.033624 1.008406-9.075655 7.058843-11.092467 13.109279-5.04203 12.100873-35.294213 49.411898-52.437116 62.521178-12.100873 9.075655-12.100873 9.075655-27.226965 4.033624-8.067249-3.025218-19.159716-11.092467-24.201746-18.151309-6.050437-7.058843-17.142904-17.142904-26.218558-22.184934l-17.142904-9.075655 11.092467-5.042031c11.092467-4.033624 17.142904-14.117685 13.109279-23.19334-2.016812-4.033624 2.016812-6.050437 22.184934-8.067249 13.109279-1.008406 31.260589-2.016812 40.336244-3.025218 15.126091-1.008406 17.142904-1.008406 23.19334 8.067249 8.067249 11.092467 25.210152 12.100873 36.302619 2.016812 4.033624-4.033624 15.126091-22.184934 25.210153-40.336244 9.075655-18.15131 21.176528-39.327838 27.226964-47.395086 9.075655-11.092467 10.084061-14.117685 7.058843-22.184934-5.04203-9.075655-40.336244-32.268995-55.462335-35.294213-5.04203-1.008406-23.19334 2.016812-39.327838 7.058843-16.134497 5.04203-37.311025 10.084061-47.395086 11.092467l-17.142904 3.025218 12.100873-11.092467c21.176528-17.142904 53.445523-41.34465 65.546396-47.395086 15.126091-8.067249 17.142904-14.117685 10.084061-25.210153-6.050437-10.084061-32.268995-23.19334-45.378274-23.19334-5.04203 0-24.201746 6.050437-42.353056 13.109279-19.159716 7.058843-35.294213 11.092467-37.311025 10.084061-1.008406-2.016812 1.008406-5.04203 4.033624-7.058842 18.15131-10.084061 21.176528-15.126091 19.159716-24.201747-2.016812-7.058843-8.067249-12.100873-24.201746-20.168121-23.19334-11.092467-26.218558-12.100873-35.294213-7.058843M570.757848 352.942132c0 5.04203-2.016812 17.142904-6.050437 26.218558l-7.058842 18.15131-37.311026 1.008406-37.311025 1.008406v-23.19334c0-16.134497 1.008406-23.19334 4.033624-23.19334 3.025218 0 17.142904-3.025218 33.277401-5.04203 40.336244-7.058843 49.411898-6.050437 50.420305 5.04203M433.614619 384.202721v25.210152h-73.613644l-2.016813-20.168122c-1.008406-11.092467-1.008406-21.176528 0-22.184934 2.016812-2.016812 36.302619-5.04203 62.521178-6.050436l13.109279-1.008406v24.201746" p-id="21585"></path>
</svg>