<svg t="1721013626509" class="icon" viewBox="0 0 1039 1024" version="1.1"
xmlns="http://www.w3.org/2000/svg" p-id="13413" width="200" height="200">
  <path d="M452.774335 185.546721c-3.025218 6.050437 16.134497 45.378274 32.268995 70.588426l8.067249 11.092467-38.319432 4.033625c-20.168122 3.025218-61.512772 6.050437-90.756548 7.058842-54.453929 3.025218-64.53799 6.050437-64.53799 18.15131 0 3.025218 3.025218 9.075655 7.058843 13.109279 6.050437 5.04203 14.117685 6.050437 48.403492 8.067249 23.19334 0 63.529584-1.008406 90.756548-3.025218 93.781766-8.067249 225.882964-22.184934 243.025868-25.210153 30.252183-7.058843 35.294213-26.218558 10.084061-38.319431-22.184934-12.100873-39.327838-13.109279-69.58002-5.042031-15.126091 4.033624-40.336244 9.075655-56.470741 10.084061l-28.235371 2.016812v-18.151309c0-15.126091-1.008406-19.159716-12.100873-30.252183-8.067249-8.067249-22.184934-16.134497-36.302619-21.176528-28.235371-10.084061-40.336244-11.092467-43.361462-3.025218m138.151635 124.033949c-1.008406 1.008406-2.016812 7.058843-2.016813 13.109279 0 23.19334-16.134497 62.521178-51.42871 129.07598-4.033624 7.058843-7.058843 13.109279-7.058843 13.109279 0 1.008406-11.092467-1.008406-24.201746-5.04203-19.159716-4.033624-24.201746-5.04203-28.235371-1.008406-6.050437 5.04203-6.050437 5.04203-12.100873-9.075655-6.050437-16.134497-22.184934-30.252183-42.353056-36.30262l-18.151309-6.050436 16.134497-16.134498c21.176528-20.168122 28.235371-33.277401 22.184934-41.344649-10.084061-12.100873-19.159716-18.15131-37.311025-24.201746-22.184934-7.058843-27.226964-4.033624-30.252183 18.151309-3.025218 29.243777-32.268995 77.647269-76.638863 125.042355-15.126091 17.142904-17.142904 30.252183-5.04203 31.260589 10.084061 2.016812 49.411898-23.19334 72.605238-45.378274l20.168122-21.176528 9.075655 16.134498c11.092467 18.15131 30.252183 36.302619 42.353056 39.327837 10.084061 3.025218 22.184934-3.025218 25.210152-12.100873 6.050437-19.159716 12.100873 0 12.100873 38.319432v24.201746l-25.210152 2.016812c-14.117685 1.008406-50.420305 4.033624-80.672487 7.058843-30.252183 3.025218-77.647269 7.058843-105.88264 8.067248-45.378274 2.016812-51.428711 3.025218-52.437117 9.075655-2.016812 9.075655 15.126091 26.218558 33.277401 33.277401 18.15131 6.050437 34.285807 5.04203 103.865828-7.058842 28.235371-5.04203 68.571614-10.084061 88.739736-11.092467l38.319431-3.025219v115.966701c-1.008406 122.017137 0 133.109604 15.126091 137.143228 3.025218 2.016812 9.075655 1.008406 12.100874-2.016812 17.142904-14.117685 24.201746-54.453929 29.243776-162.353381 3.025218-49.411898 5.04203-90.756548 6.050437-91.764954 1.008406 0 57.479147-2.016812 126.050761-3.025218 67.563208-1.008406 126.050761-3.025218 130.084386-5.042031 7.058843-3.025218 10.084061-12.100873 8.067249-20.168121-3.025218-8.067249-33.277401-22.184934-55.462335-27.226965-14.117685-3.025218-27.226964-3.025218-62.521178 3.025218-24.201746 3.025218-67.563208 7.058843-94.790173 9.075655-57.479147 2.016812-56.470741 3.025218-44.369868-27.226964 4.033624-11.092467 5.04203-16.134497 2.016813-21.176528s-1.008406-7.058843 12.100873-17.142904c9.075655-7.058843 23.19334-19.159716 31.260589-27.226964l15.126091-16.134498 20.168122 24.201746c42.353056 48.403492 76.638863 53.445523 81.680893 13.10928 3.025218-24.201746-20.168122-43.361462-63.529584-55.462335-12.100873-3.025218-21.176528-6.050437-22.184934-6.050437-1.008406-1.008406 7.058843-14.117685 18.15131-28.23537 10.084061-14.117685 19.159716-27.226964 19.159716-29.243777 0-5.04203-19.159716-20.168122-34.285807-27.226965-16.134497-7.058843-29.243777-8.067249-34.285807-4.033624" p-id="13415"></path>
</svg>